<svg width="114" height="18" viewBox="0 0 114 18" fill="none" xmlns="http://www.w3.org/2000/svg">
<path d="M35.48 17.7183H33.064V8.31032H30.264C30.2 8.80099 30.1307 9.33432 30.056 9.91032C29.992 10.4863 29.9173 11.073 29.832 11.6703C29.7573 12.257 29.6773 12.817 29.592 13.3503C29.5067 13.873 29.4213 14.337 29.336 14.7423C29.1973 15.4037 29.0107 15.969 28.776 16.4383C28.552 16.9077 28.2373 17.265 27.832 17.5103C27.4373 17.7557 26.92 17.8783 26.28 17.8783C25.864 17.8783 25.48 17.8197 25.128 17.7023V15.7183C25.2667 15.761 25.4 15.7983 25.528 15.8303C25.6667 15.8623 25.816 15.8783 25.976 15.8783C26.2853 15.8783 26.52 15.7183 26.68 15.3983C26.8507 15.0677 27.0213 14.4543 27.192 13.5583C27.256 13.217 27.3467 12.6837 27.464 11.9583C27.5813 11.233 27.7093 10.385 27.848 9.41432C27.9973 8.43299 28.136 7.39299 28.264 6.29432H35.48V17.7183ZM38.3619 6.29432H40.5379V11.8143C40.5379 12.081 40.5325 12.3797 40.5219 12.7103C40.5112 13.041 40.5005 13.3663 40.4899 13.6863C40.4792 13.9957 40.4685 14.2677 40.4579 14.5023C40.4472 14.7263 40.4365 14.881 40.4259 14.9663H40.4739L45.7539 6.29432H48.6499V17.7183H46.4899V12.2303C46.4899 11.9423 46.4952 11.6277 46.5059 11.2863C46.5165 10.9343 46.5272 10.5983 46.5379 10.2783C46.5592 9.95832 46.5752 9.68099 46.5859 9.44632C46.6072 9.20099 46.6232 9.04099 46.6339 8.96632H46.5699L41.2739 17.7183H38.3619V6.29432ZM58.7498 6.29432V8.29432H53.9498V17.7183H51.5338V6.29432H58.7498ZM66.3695 17.7183L65.5375 14.9983H61.3775L60.5455 17.7183H57.9375L61.9695 6.24632H64.9295L68.9775 17.7183H66.3695ZM64.1295 10.3103C64.0762 10.129 64.0068 9.89966 63.9215 9.62232C63.8362 9.34499 63.7508 9.06232 63.6655 8.77432C63.5802 8.48632 63.5108 8.23566 63.4575 8.02232C63.4042 8.23566 63.3295 8.50232 63.2335 8.82232C63.1482 9.13166 63.0628 9.43032 62.9775 9.71832C62.9028 9.99566 62.8442 10.193 62.8015 10.3103L61.9855 12.9663H64.9615L64.1295 10.3103ZM75.0025 17.7183V6.29432H82.2185V8.29432H77.4185V10.6783H78.3785C79.4558 10.6783 80.3358 10.8277 81.0185 11.1263C81.7118 11.425 82.2238 11.8357 82.5545 12.3583C82.8852 12.881 83.0505 13.4783 83.0505 14.1503C83.0505 15.281 82.6718 16.161 81.9145 16.7903C81.1678 17.409 79.9732 17.7183 78.3305 17.7183H75.0025ZM78.2345 15.7343C78.9705 15.7343 79.5465 15.617 79.9625 15.3823C80.3892 15.1477 80.6025 14.737 80.6025 14.1503C80.6025 13.5423 80.3732 13.1423 79.9145 12.9503C79.4558 12.7583 78.8318 12.6623 78.0425 12.6623H77.4185V15.7343H78.2345ZM88.5976 8.80632C89.771 8.80632 90.667 9.06232 91.2856 9.57432C91.915 10.0757 92.2296 10.849 92.2296 11.8943V17.7183H90.5656L90.1016 16.5343H90.0376C89.6643 17.0037 89.2696 17.345 88.8536 17.5583C88.4376 17.7717 87.867 17.8783 87.1416 17.8783C86.363 17.8783 85.7176 17.6543 85.2056 17.2063C84.6936 16.7477 84.4376 16.049 84.4376 15.1103C84.4376 14.1823 84.763 13.4997 85.4136 13.0623C86.0643 12.6143 87.0403 12.369 88.3416 12.3263L89.8616 12.2783V11.8943C89.8616 11.4357 89.739 11.0997 89.4936 10.8863C89.259 10.673 88.9283 10.5663 88.5016 10.5663C88.075 10.5663 87.659 10.6303 87.2536 10.7583C86.8483 10.8757 86.443 11.025 86.0376 11.2063L85.2536 9.59032C85.723 9.34499 86.2403 9.15299 86.8056 9.01432C87.3816 8.87566 87.979 8.80632 88.5976 8.80632ZM88.9336 13.7023C88.1656 13.7237 87.6323 13.8623 87.3336 14.1183C87.035 14.3743 86.8856 14.7103 86.8856 15.1263C86.8856 15.489 86.9923 15.7503 87.2056 15.9103C87.419 16.0597 87.6963 16.1343 88.0376 16.1343C88.5496 16.1343 88.9816 15.985 89.3336 15.6863C89.6856 15.377 89.8616 14.945 89.8616 14.3903V13.6703L88.9336 13.7023ZM97.0539 8.98232V12.3423H100.382V8.98232H102.766V17.7183H100.382V14.1183H97.0539V17.7183H94.6699V8.98232H97.0539ZM110.992 8.98232H113.616L110.16 13.1743L113.92 17.7183H111.216L107.648 13.2863V17.7183H105.264V8.98232H107.648V13.2223L110.992 8.98232Z" fill="#1F1E25"/>
<path d="M11.125 0.915497H9.25L1 14.9508H3.4375L4.5625 12.9457L11.125 0.915497Z" fill="#2C36F2"/>
<path d="M2.125 17.3568H17.875L11.125 4.92557L10 6.93061L13.375 12.9457L14.5 14.9508H3.4375H1L2.125 17.3568Z" fill="#2C36F2"/>
<path d="M14.5 14.9508L13.375 12.9457H6.625H4.5625L3.4375 14.9508H14.5Z" fill="#2C36F2"/>
<path d="M17.875 17.3568L19 14.9508L11.125 0.915497L4.5625 12.9457H6.625L10 6.93061L11.125 4.92557L17.875 17.3568Z" fill="#2C36F2"/>
<path d="M10 6.93061L6.625 12.9457H13.375L10 6.93061Z" fill="#2C36F2"/>
<path d="M17.875 17.3568H2.125L1 14.9508M17.875 17.3568L19 14.9508L11.125 0.915497M17.875 17.3568L11.125 4.92557L10 6.93061M11.125 0.915497H9.25L1 14.9508M11.125 0.915497L4.5625 12.9457M1 14.9508H3.4375M10 6.93061L6.625 12.9457M10 6.93061L13.375 12.9457M6.625 12.9457H13.375M6.625 12.9457H4.5625M13.375 12.9457L14.5 14.9508H3.4375M4.5625 12.9457L3.4375 14.9508" stroke="#F6F7FF"/>
</svg>
